<mxfile host="65bd71144e">
    <diagram id="bfxLnarcB1OtGD050o-9" name="第1頁">
        <mxGraphModel dx="1135" dy="718" grid="1" gridSize="10" guides="1" tooltips="1" connect="1" arrows="1" fold="1" page="1" pageScale="1" pageWidth="827" pageHeight="1169" math="0" shadow="0">
            <root>
                <mxCell id="0"/>
                <mxCell id="1" parent="0"/>
                <mxCell id="2" value="" style="rounded=1;whiteSpace=wrap;html=1;arcSize=4;shadow=0;fillColor=#1A1A1A;" vertex="1" parent="1">
                    <mxGeometry x="64" y="100" width="700" height="610" as="geometry"/>
                </mxCell>
                <mxCell id="3" value="&lt;font style=&quot;font-size: 22px&quot;&gt;COVID 19 TRACKER&lt;/font&gt;" style="text;html=1;strokeColor=none;fillColor=none;align=center;verticalAlign=middle;whiteSpace=wrap;rounded=0;" vertex="1" parent="1">
                    <mxGeometry x="100" y="150" width="230" height="30" as="geometry"/>
                </mxCell>
                <mxCell id="4" value="Worldwide" style="rounded=1;whiteSpace=wrap;html=1;fontSize=22;" vertex="1" parent="1">
                    <mxGeometry x="414" y="140" width="120" height="50" as="geometry"/>
                </mxCell>
                <mxCell id="12" value="" style="group;verticalAlign=middle;" vertex="1" connectable="0" parent="1">
                    <mxGeometry x="110" y="210" width="120" height="61" as="geometry"/>
                </mxCell>
                <mxCell id="5" value="&lt;font style=&quot;font-size: 12px&quot;&gt;&lt;br&gt;&lt;/font&gt;" style="rounded=1;whiteSpace=wrap;html=1;fontSize=22;" vertex="1" parent="12">
                    <mxGeometry width="120" height="60" as="geometry"/>
                </mxCell>
                <mxCell id="7" value="Coronavirus cases" style="text;html=1;strokeColor=none;fillColor=none;align=center;verticalAlign=middle;whiteSpace=wrap;rounded=0;fontSize=12;" vertex="1" parent="12">
                    <mxGeometry width="110" height="30" as="geometry"/>
                </mxCell>
                <mxCell id="8" value="+1200" style="text;html=1;strokeColor=none;fillColor=none;align=left;verticalAlign=middle;whiteSpace=wrap;rounded=0;fontSize=12;" vertex="1" parent="12">
                    <mxGeometry x="5" y="15" width="110" height="30" as="geometry"/>
                </mxCell>
                <mxCell id="9" value="1.2M total" style="text;html=1;strokeColor=none;fillColor=none;align=left;verticalAlign=middle;whiteSpace=wrap;rounded=0;fontSize=12;" vertex="1" parent="12">
                    <mxGeometry x="6" y="31" width="110" height="30" as="geometry"/>
                </mxCell>
                <mxCell id="21" value="" style="group;verticalAlign=middle;" vertex="1" connectable="0" parent="1">
                    <mxGeometry x="414" y="210" width="120" height="61" as="geometry"/>
                </mxCell>
                <mxCell id="22" value="&lt;font style=&quot;font-size: 12px&quot;&gt;&lt;br&gt;&lt;/font&gt;" style="rounded=1;whiteSpace=wrap;html=1;fontSize=22;" vertex="1" parent="21">
                    <mxGeometry width="120" height="60" as="geometry"/>
                </mxCell>
                <mxCell id="23" value="Deaths" style="text;html=1;strokeColor=none;fillColor=none;align=left;verticalAlign=middle;whiteSpace=wrap;rounded=0;fontSize=12;" vertex="1" parent="21">
                    <mxGeometry x="5" width="110" height="30" as="geometry"/>
                </mxCell>
                <mxCell id="24" value="+1200" style="text;html=1;strokeColor=none;fillColor=none;align=left;verticalAlign=middle;whiteSpace=wrap;rounded=0;fontSize=12;" vertex="1" parent="21">
                    <mxGeometry x="5" y="15" width="110" height="30" as="geometry"/>
                </mxCell>
                <mxCell id="25" value="1.2M total" style="text;html=1;strokeColor=none;fillColor=none;align=left;verticalAlign=middle;whiteSpace=wrap;rounded=0;fontSize=12;" vertex="1" parent="21">
                    <mxGeometry x="6" y="31" width="110" height="30" as="geometry"/>
                </mxCell>
                <mxCell id="26" value="" style="group;verticalAlign=middle;" vertex="1" connectable="0" parent="1">
                    <mxGeometry x="260" y="210" width="120" height="61" as="geometry"/>
                </mxCell>
                <mxCell id="27" value="&lt;font style=&quot;font-size: 12px&quot;&gt;&lt;br&gt;&lt;/font&gt;" style="rounded=1;whiteSpace=wrap;html=1;fontSize=22;" vertex="1" parent="26">
                    <mxGeometry width="120" height="60" as="geometry"/>
                </mxCell>
                <mxCell id="28" value="Recovered" style="text;html=1;strokeColor=none;fillColor=none;align=left;verticalAlign=middle;whiteSpace=wrap;rounded=0;fontSize=12;" vertex="1" parent="26">
                    <mxGeometry x="6" y="1" width="110" height="30" as="geometry"/>
                </mxCell>
                <mxCell id="29" value="+1200" style="text;html=1;strokeColor=none;fillColor=none;align=left;verticalAlign=middle;whiteSpace=wrap;rounded=0;fontSize=12;" vertex="1" parent="26">
                    <mxGeometry x="5" y="15" width="110" height="30" as="geometry"/>
                </mxCell>
                <mxCell id="30" value="1.2M total" style="text;html=1;strokeColor=none;fillColor=none;align=left;verticalAlign=middle;whiteSpace=wrap;rounded=0;fontSize=12;" vertex="1" parent="26">
                    <mxGeometry x="6" y="31" width="110" height="30" as="geometry"/>
                </mxCell>
                <mxCell id="39" value="" style="rounded=1;whiteSpace=wrap;html=1;shadow=0;fontSize=12;arcSize=10;" vertex="1" parent="1">
                    <mxGeometry x="560" y="130" width="180" height="530" as="geometry"/>
                </mxCell>
                <mxCell id="40" value="Cases By Country" style="text;html=1;strokeColor=none;fillColor=none;align=center;verticalAlign=middle;whiteSpace=wrap;rounded=0;shadow=0;fontSize=12;" vertex="1" parent="1">
                    <mxGeometry x="590" y="140" width="100" height="30" as="geometry"/>
                </mxCell>
                <mxCell id="41" value="Worldwid New Cases" style="text;html=1;strokeColor=none;fillColor=none;align=center;verticalAlign=middle;whiteSpace=wrap;rounded=0;shadow=0;fontSize=12;" vertex="1" parent="1">
                    <mxGeometry x="580" y="465" width="120" height="30" as="geometry"/>
                </mxCell>
                <mxCell id="42" value="&lt;table border=&quot;1&quot; width=&quot;100%&quot; height=&quot;100%&quot; style=&quot;width:100%;height:100%;border-collapse:collapse;&quot;&gt;&lt;tr&gt;&lt;td align=&quot;center&quot;&gt;Value 1&lt;/td&gt;&lt;td align=&quot;center&quot;&gt;Value 2&lt;/td&gt;&lt;td align=&quot;center&quot;&gt;Value 3&lt;/td&gt;&lt;/tr&gt;&lt;tr&gt;&lt;td align=&quot;center&quot;&gt;Value 4&lt;/td&gt;&lt;td align=&quot;center&quot;&gt;Value 5&lt;/td&gt;&lt;td align=&quot;center&quot;&gt;Value 6&lt;/td&gt;&lt;/tr&gt;&lt;tr&gt;&lt;td align=&quot;center&quot;&gt;Value 7&lt;/td&gt;&lt;td align=&quot;center&quot;&gt;Value 8&lt;/td&gt;&lt;td align=&quot;center&quot;&gt;Value 9&lt;/td&gt;&lt;/tr&gt;&lt;/table&gt;" style="text;html=1;strokeColor=none;fillColor=none;overflow=fill;rounded=1;shadow=0;fontSize=12;" vertex="1" parent="1">
                    <mxGeometry x="560" y="170.5" width="180" height="279.5" as="geometry"/>
                </mxCell>
                <mxCell id="43" value="" style="fillColor=#10739E;strokeColor=none;rounded=1;shadow=0;fontSize=12;" vertex="1" parent="1">
                    <mxGeometry x="565" y="540" width="30" height="100" as="geometry"/>
                </mxCell>
                <mxCell id="44" value="" style="shape=mxgraph.arrows2.arrow;dy=0.4;dx=16;notch=0;direction=north;fillColor=#1699D3;strokeColor=none;rounded=1;shadow=0;fontSize=12;" vertex="1" parent="43">
                    <mxGeometry x="3" y="30" width="24" height="70" as="geometry"/>
                </mxCell>
                <mxCell id="45" value="Label" style="text;html=1;align=center;verticalAlign=middle;whiteSpace=wrap;fontColor=#FFFFFF;fontSize=10;rounded=1;shadow=0;fillColor=#9C9C9C;" vertex="1" parent="43">
                    <mxGeometry width="30" height="20" as="geometry"/>
                </mxCell>
                <mxCell id="46" value="" style="fillColor=#F2931E;strokeColor=none;rounded=1;shadow=0;fontSize=12;" vertex="1" parent="1">
                    <mxGeometry x="600" y="520" width="30" height="120" as="geometry"/>
                </mxCell>
                <mxCell id="47" value="" style="shape=mxgraph.arrows2.arrow;dy=0.4;dx=16;notch=0;direction=south;fillColor=#F5AB50;strokeColor=none;rounded=1;shadow=0;fontSize=12;" vertex="1" parent="46">
                    <mxGeometry x="3" width="24" height="80" as="geometry"/>
                </mxCell>
                <mxCell id="48" value="Label" style="text;html=1;align=center;verticalAlign=middle;whiteSpace=wrap;fontColor=#FFFFFF;fontSize=10;rounded=1;shadow=0;fillColor=#9C9C9C;" vertex="1" parent="46">
                    <mxGeometry width="30" height="20" as="geometry"/>
                </mxCell>
                <mxCell id="49" value="" style="fillColor=#AE4132;strokeColor=none;rounded=1;shadow=0;fontSize=12;" vertex="1" parent="1">
                    <mxGeometry x="635" y="510" width="30" height="130" as="geometry"/>
                </mxCell>
                <mxCell id="50" value="" style="shape=mxgraph.arrows2.arrow;dy=0.4;dx=16;notch=0;direction=north;fillColor=#E85642;strokeColor=none;rounded=1;shadow=0;fontSize=12;" vertex="1" parent="49">
                    <mxGeometry x="3" y="80" width="24" height="50" as="geometry"/>
                </mxCell>
                <mxCell id="51" value="Label" style="text;html=1;align=center;verticalAlign=middle;whiteSpace=wrap;fontColor=#FFFFFF;fontSize=10;rounded=1;shadow=0;fillColor=#9C9C9C;" vertex="1" parent="49">
                    <mxGeometry width="30" height="20" as="geometry"/>
                </mxCell>
                <mxCell id="52" value="" style="fillColor=#12AAB5;strokeColor=none;rounded=1;shadow=0;fontSize=12;" vertex="1" parent="1">
                    <mxGeometry x="670" y="560" width="30" height="80" as="geometry"/>
                </mxCell>
                <mxCell id="53" value="" style="shape=mxgraph.arrows2.arrow;dy=0.4;dx=16;notch=0;direction=south;fillColor=#64BBE2;strokeColor=none;rounded=1;shadow=0;fontSize=12;" vertex="1" parent="52">
                    <mxGeometry x="3" width="24" height="30" as="geometry"/>
                </mxCell>
                <mxCell id="54" value="Label" style="text;html=1;align=center;verticalAlign=middle;whiteSpace=wrap;fontColor=#FFFFFF;fontSize=10;rounded=1;shadow=0;fillColor=#9C9C9C;" vertex="1" parent="52">
                    <mxGeometry width="30" height="20" as="geometry"/>
                </mxCell>
                <mxCell id="55" value="" style="fillColor=#23445D;strokeColor=none;rounded=1;shadow=0;fontSize=12;" vertex="1" parent="1">
                    <mxGeometry x="705" y="570" width="30" height="70" as="geometry"/>
                </mxCell>
                <mxCell id="56" value="" style="shape=mxgraph.arrows2.arrow;dy=0.4;dx=16;notch=0;direction=north;fillColor=#2F5B7C;strokeColor=none;rounded=1;shadow=0;fontSize=12;" vertex="1" parent="55">
                    <mxGeometry x="3" y="10" width="24" height="60" as="geometry"/>
                </mxCell>
                <mxCell id="57" value="Label" style="text;html=1;align=center;verticalAlign=middle;whiteSpace=wrap;fontColor=#FFFFFF;fontSize=10;rounded=1;shadow=0;fillColor=#9C9C9C;" vertex="1" parent="55">
                    <mxGeometry width="30" height="20" as="geometry"/>
                </mxCell>
                <mxCell id="60" value="Map" style="html=1;strokeColor=none;fillColor=#808080;labelPosition=center;verticalLabelPosition=middle;verticalAlign=top;align=center;fontSize=12;outlineConnect=0;spacingTop=-6;fontColor=#FFFFFF;sketch=0;shape=mxgraph.sitemap.map;rounded=1;shadow=0;" vertex="1" parent="1">
                    <mxGeometry x="110" y="300" width="420" height="360" as="geometry"/>
                </mxCell>
            </root>
        </mxGraphModel>
    </diagram>
</mxfile>